<svg width="334" height="335" viewBox="0 0 334 335" fill="none" xmlns="http://www.w3.org/2000/svg">
<g clip-path="url(#clip0_3:169)">
<path d="M32.1194 282.208L29.1778 270.607C23.9623 268.396 18.6262 266.482 13.195 264.872L12.8237 270.264L11.318 264.324C4.58233 262.399 0 261.552 0 261.552C0 261.552 6.1881 285.088 19.1715 303.082L34.2983 305.74L22.5467 307.434C24.1799 309.399 25.935 311.26 27.8016 313.004C46.6866 330.534 67.7212 338.577 74.7833 330.968C81.8454 323.359 72.261 302.981 53.376 285.454C47.5215 280.019 40.1671 275.659 32.805 272.226L32.1194 282.208Z" fill="#F2F2F2"/>
<path d="M60.0942 269.607L63.573 258.155C60.2511 253.567 56.673 249.17 52.8559 244.985L49.7511 249.408L51.5322 243.545C46.7606 238.417 43.276 235.323 43.276 235.323C43.276 235.323 36.4085 258.671 38.2201 280.785L49.7959 290.879L38.8582 286.255C39.2409 288.782 39.7822 291.282 40.4788 293.741C47.5843 318.509 61.4336 336.266 71.4117 333.404C81.3898 330.541 83.7189 308.142 76.6133 283.374C74.4107 275.696 70.3687 268.162 65.8411 261.418L60.0942 269.607Z" fill="#F2F2F2"/>
<path d="M233.064 79.3617H231.229V29.0945C231.229 25.2737 230.476 21.4904 229.014 17.9605C227.552 14.4306 225.409 11.2233 222.707 8.52159C220.005 5.81992 216.798 3.67683 213.268 2.2147C209.738 0.752563 205.955 1.52588e-05 202.134 1.52588e-05H95.6328C87.9164 1.52588e-05 80.5162 3.06532 75.0599 8.52159C69.6036 13.9779 66.5383 21.3781 66.5383 29.0945V304.869C66.5383 308.69 67.2909 312.473 68.753 316.003C70.2151 319.533 72.3582 322.74 75.0599 325.442C77.7616 328.144 80.9689 330.287 84.4988 331.749C88.0287 333.211 91.812 333.964 95.6328 333.964H202.134C209.85 333.964 217.251 330.898 222.707 325.442C228.163 319.986 231.228 312.586 231.228 304.869V115.143H233.063L233.064 79.3617Z" fill="#E6E6E6"/>
<path d="M203.308 7.56654H189.407C190.047 9.13402 190.291 10.8347 190.118 12.5187C189.945 14.2027 189.361 15.8183 188.416 17.2233C187.472 18.6283 186.197 19.7795 184.703 20.5754C183.209 21.3713 181.542 21.7876 179.849 21.7876H118.835C117.143 21.7875 115.476 21.3711 113.982 20.5751C112.488 19.7791 111.213 18.6279 110.269 17.223C109.324 15.818 108.74 14.2024 108.567 12.5185C108.395 10.8345 108.639 9.13395 109.278 7.56654H96.2937C90.5313 7.56654 85.0048 9.85568 80.9301 13.9304C76.8554 18.0051 74.5663 23.5315 74.5663 29.294V304.668C74.5663 310.431 76.8554 315.957 80.9301 320.032C85.0048 324.107 90.5313 326.396 96.2937 326.396H203.308C209.071 326.396 214.597 324.107 218.672 320.032C222.746 315.957 225.036 310.431 225.036 304.668V29.2936C225.035 23.5312 222.746 18.0048 218.672 13.9302C214.597 9.85562 209.07 7.56654 203.308 7.56654Z" fill="white"/>
<path d="M136.164 117.262C136.164 115.337 136.671 113.446 137.634 111.779C138.596 110.112 139.981 108.728 141.649 107.767C139.982 106.804 138.091 106.298 136.166 106.297C134.242 106.297 132.351 106.804 130.684 107.766C129.017 108.728 127.633 110.112 126.671 111.779C125.708 113.446 125.202 115.336 125.202 117.261C125.202 119.186 125.708 121.076 126.671 122.743C127.633 124.41 129.017 125.794 130.684 126.756C132.351 127.719 134.242 128.225 136.166 128.225C138.091 128.225 139.982 127.718 141.649 126.755C139.981 125.794 138.596 124.41 137.634 122.744C136.671 121.077 136.164 119.186 136.164 117.262Z" fill="#CCCCCC"/>
<path d="M149.947 117.262C149.947 115.337 150.454 113.446 151.416 111.779C152.379 110.112 153.764 108.728 155.431 107.767C153.765 106.804 151.874 106.298 149.949 106.297C148.025 106.297 146.134 106.804 144.467 107.766C142.8 108.728 141.416 110.112 140.453 111.779C139.491 113.446 138.984 115.336 138.984 117.261C138.984 119.186 139.491 121.076 140.453 122.743C141.416 124.41 142.8 125.794 144.467 126.756C146.134 127.719 148.025 128.225 149.949 128.225C151.874 128.225 153.765 127.718 155.431 126.755C153.764 125.794 152.379 124.41 151.417 122.744C150.454 121.077 149.947 119.186 149.947 117.262Z" fill="#CCCCCC"/>
<path d="M163.417 128.225C169.472 128.225 174.381 123.316 174.381 117.261C174.381 111.206 169.472 106.298 163.417 106.298C157.362 106.298 152.453 111.206 152.453 117.261C152.453 123.316 157.362 128.225 163.417 128.225Z" fill="#F1E6EA"/>
<path d="M181.74 151.505H117.841C117.233 151.505 116.65 151.263 116.22 150.832C115.79 150.402 115.548 149.819 115.547 149.211V85.3117C115.548 84.7034 115.79 84.1202 116.22 83.69C116.65 83.2599 117.233 83.0179 117.841 83.0172H181.74C182.349 83.0179 182.932 83.2599 183.362 83.69C183.792 84.1202 184.034 84.7034 184.035 85.3117V149.211C184.034 149.819 183.792 150.402 183.362 150.832C182.932 151.263 182.349 151.505 181.74 151.505ZM117.841 83.9355C117.476 83.9359 117.126 84.081 116.868 84.3391C116.61 84.5972 116.465 84.9472 116.465 85.3122V149.211C116.465 149.576 116.61 149.926 116.868 150.184C117.126 150.442 117.476 150.587 117.841 150.588H181.74C182.105 150.587 182.455 150.442 182.713 150.184C182.971 149.926 183.117 149.576 183.117 149.211V85.3122C183.117 84.9472 182.971 84.5972 182.713 84.3391C182.455 84.081 182.105 83.9359 181.74 83.9355H117.841Z" fill="#CCCCCC"/>
<path d="M196.008 200.487H98.0062V201.405H196.008V200.487Z" fill="#CCCCCC"/>
<path d="M101.101 194.756C102.81 194.756 104.196 193.371 104.196 191.661C104.196 189.952 102.81 188.566 101.101 188.566C99.3919 188.566 98.0062 189.952 98.0062 191.661C98.0062 193.371 99.3919 194.756 101.101 194.756Z" fill="#F1E6EA"/>
<path d="M196.008 231.435H98.0062V232.353H196.008V231.435Z" fill="#CCCCCC"/>
<path d="M101.101 225.704C102.81 225.704 104.196 224.319 104.196 222.609C104.196 220.9 102.81 219.514 101.101 219.514C99.3919 219.514 98.0062 220.9 98.0062 222.609C98.0062 224.319 99.3919 225.704 101.101 225.704Z" fill="#F1E6EA"/>
<path d="M194.214 266.677H163.243C162.708 266.676 162.195 266.463 161.817 266.085C161.439 265.707 161.226 265.194 161.225 264.659V253.804C161.226 253.269 161.439 252.756 161.817 252.377C162.195 251.999 162.708 251.786 163.243 251.786H194.214C194.749 251.786 195.262 251.999 195.641 252.377C196.019 252.756 196.232 253.269 196.232 253.804V264.659C196.232 265.194 196.019 265.707 195.641 266.085C195.262 266.463 194.749 266.676 194.214 266.677Z" fill="#F1E6EA"/>
<path d="M111.197 194.756C112.906 194.756 114.292 193.371 114.292 191.661C114.292 189.952 112.906 188.566 111.197 188.566C109.487 188.566 108.102 189.952 108.102 191.661C108.102 193.371 109.487 194.756 111.197 194.756Z" fill="#F1E6EA"/>
<path d="M121.292 194.756C123.002 194.756 124.387 193.371 124.387 191.661C124.387 189.952 123.002 188.566 121.292 188.566C119.583 188.566 118.197 189.952 118.197 191.661C118.197 193.371 119.583 194.756 121.292 194.756Z" fill="#F1E6EA"/>
<path d="M111.197 225.704C112.906 225.704 114.292 224.319 114.292 222.609C114.292 220.9 112.906 219.514 111.197 219.514C109.487 219.514 108.102 220.9 108.102 222.609C108.102 224.319 109.487 225.704 111.197 225.704Z" fill="#F1E6EA"/>
<path d="M121.292 225.704C123.002 225.704 124.387 224.319 124.387 222.609C124.387 220.9 123.002 219.514 121.292 219.514C119.583 219.514 118.197 220.9 118.197 222.609C118.197 224.319 119.583 225.704 121.292 225.704Z" fill="#F1E6EA"/>
<path d="M332.753 335H10.7978C10.1086 335 9.55029 334.755 9.55029 334.454C9.55029 334.153 10.1086 333.907 10.7978 333.907H332.753C333.441 333.907 334 334.152 334 334.454C334 334.756 333.441 335 332.753 335Z" fill="#3F3D56"/>
<path d="M253.209 219.481C253.429 219.582 253.64 219.7 253.841 219.835L273.954 211.25L274.672 205.952L282.708 205.903L282.233 218.054L255.687 225.075C255.631 225.259 255.564 225.44 255.486 225.617C255.103 226.436 254.485 227.123 253.712 227.592C252.939 228.061 252.045 228.292 251.141 228.254C250.237 228.217 249.365 227.913 248.633 227.382C247.901 226.85 247.343 226.114 247.028 225.266C246.714 224.418 246.656 223.496 246.864 222.616C247.071 221.736 247.534 220.936 248.195 220.318C248.855 219.7 249.683 219.291 250.575 219.142C251.467 218.993 252.383 219.111 253.209 219.481Z" fill="#FFB8B8"/>
<path d="M285.631 329.594H280.133L277.518 308.389L285.631 308.39L285.631 329.594Z" fill="#FFB8B8"/>
<path d="M276.206 328.023H286.808V334.699H269.531C269.531 332.928 270.234 331.23 271.486 329.978C272.738 328.726 274.436 328.023 276.206 328.023Z" fill="#2F2E41"/>
<path d="M307.011 328.041L301.54 328.58L296.858 307.734L304.932 306.938L307.011 328.041Z" fill="#FFB8B8"/>
<path d="M297.478 327.401L308.029 326.362L308.684 333.005L291.489 334.699C291.403 333.827 291.49 332.946 291.744 332.107C291.999 331.268 292.416 330.487 292.972 329.81C293.528 329.132 294.213 328.571 294.986 328.157C295.759 327.744 296.606 327.487 297.478 327.401Z" fill="#2F2E41"/>
<path d="M287.161 183.462C293.243 183.462 298.174 178.531 298.174 172.448C298.174 166.366 293.243 161.435 287.161 161.435C281.078 161.435 276.147 166.366 276.147 172.448C276.147 178.531 281.078 183.462 287.161 183.462Z" fill="#FFB8B8"/>
<path d="M278.905 325.306C278.432 325.307 277.974 325.141 277.612 324.838C277.25 324.535 277.007 324.113 276.925 323.648C274.079 307.852 264.778 256.204 264.556 254.773C264.551 254.74 264.548 254.707 264.549 254.674V250.823C264.548 250.683 264.592 250.546 264.674 250.432L265.903 248.711C265.961 248.628 266.038 248.56 266.127 248.511C266.215 248.463 266.314 248.435 266.416 248.431C273.421 248.102 296.362 247.14 297.471 248.524C298.584 249.916 298.191 254.133 298.1 254.964L298.105 255.051L308.412 320.965C308.492 321.491 308.363 322.027 308.051 322.458C307.739 322.889 307.271 323.18 306.746 323.268L300.308 324.328C299.829 324.405 299.338 324.308 298.924 324.053C298.511 323.799 298.202 323.404 298.055 322.941C296.064 316.579 289.388 295.177 287.074 286.895C287.059 286.842 287.026 286.797 286.981 286.767C286.935 286.737 286.88 286.725 286.826 286.733C286.773 286.74 286.723 286.767 286.688 286.809C286.653 286.85 286.633 286.903 286.634 286.957C286.75 294.852 287.029 314.993 287.125 321.95L287.136 322.699C287.14 323.207 286.954 323.697 286.614 324.074C286.274 324.45 285.806 324.686 285.301 324.733L279.093 325.297C279.03 325.303 278.967 325.306 278.905 325.306Z" fill="#2F2E41"/>
<path d="M280.171 187.792C278.249 188.935 277.099 191.035 276.439 193.171C275.217 197.127 274.482 201.216 274.249 205.35L273.551 217.726L264.917 250.537C272.4 256.869 276.717 255.43 286.791 250.25C296.864 245.071 298.016 251.977 298.016 251.977L300.03 224.06L302.908 193.553C302.262 192.775 301.531 192.072 300.728 191.457C298.068 189.388 294.973 187.95 291.676 187.252C288.379 186.553 284.967 186.612 281.696 187.423L280.171 187.792Z" fill="#F1E6EA"/>
<path d="M277.367 226.108C277.599 226.195 277.824 226.301 278.039 226.424L297.926 216.47L298.256 211.078L306.459 210.512L306.899 222.804L280.323 231.593C280.106 232.524 279.611 233.366 278.903 234.009C278.196 234.651 277.309 235.063 276.362 235.189C275.415 235.316 274.451 235.151 273.6 234.716C272.749 234.282 272.05 233.599 271.597 232.757C271.143 231.916 270.957 230.957 271.062 230.007C271.167 229.057 271.558 228.162 272.185 227.44C272.811 226.718 273.642 226.204 274.568 225.966C275.494 225.728 276.47 225.778 277.367 226.108Z" fill="#FFB8B8"/>
<path d="M302.764 193.693C307.657 195.419 308.519 214.128 308.519 214.128C302.763 210.963 295.855 216.143 295.855 216.143C295.855 216.143 294.416 211.25 292.689 204.918C292.168 203.137 292.105 201.253 292.508 199.442C292.91 197.63 293.765 195.95 294.991 194.557C294.991 194.557 297.871 191.965 302.764 193.693Z" fill="#F1E6EA"/>
<path d="M297.036 175.361C295.664 174.263 293.792 176.259 293.792 176.259L292.694 166.378C292.694 166.378 285.833 167.2 281.442 166.104C277.05 165.008 276.364 170.084 276.364 170.084C276.138 168.034 276.092 165.967 276.227 163.909C276.501 161.439 280.069 158.969 286.382 157.322C292.694 155.675 295.987 162.811 295.987 162.811C300.379 165.006 298.408 176.459 297.036 175.361Z" fill="#2F2E41"/>
</g>
<defs>
<clipPath id="clip0_3:169">
<rect width="334" height="335" fill="white"/>
</clipPath>
</defs>
</svg>
