<svg width="527" height="229" viewBox="0 0 527 229" fill="none" xmlns="http://www.w3.org/2000/svg">
<g clip-path="url(#clip0_3:35)">
<path d="M475.369 94.4693H166.176C164.863 94.4693 163.604 94.9917 162.676 95.9216C161.747 96.8515 161.226 98.1127 161.226 99.4277C161.226 100.743 161.747 102.004 162.676 102.934C163.604 103.864 164.863 104.386 166.176 104.386H174.934V223.008C174.934 224.323 175.455 225.585 176.384 226.514C177.312 227.444 178.571 227.967 179.884 227.967C181.197 227.967 182.456 227.444 183.384 226.514C184.313 225.585 184.834 224.323 184.834 223.008L184.909 104.386H433.069L455.95 223.008C455.95 224.323 456.471 225.585 457.4 226.514C458.328 227.444 459.587 227.967 460.9 227.967C462.213 227.967 463.472 227.444 464.4 226.514C465.328 225.585 465.85 224.323 465.85 223.008L467.29 104.386H475.369C476.682 104.386 477.941 103.864 478.87 102.934C479.798 102.004 480.32 100.743 480.32 99.4277C480.32 98.1127 479.798 96.8515 478.87 95.9216C477.941 94.9917 476.682 94.4693 475.369 94.4693Z" fill="#CCCCCC"/>
<path d="M219.77 72.375V93.3728H167.252C165.875 93.4208 164.503 93.1967 163.213 92.7134C161.923 92.2301 160.741 91.497 159.733 90.556C158.726 89.615 157.914 88.4845 157.343 87.2291C156.772 85.9737 156.454 84.6179 156.406 83.2391C156.358 81.8604 156.581 80.4857 157.064 79.1936C157.546 77.9014 158.278 76.7171 159.218 75.7083C160.157 74.6995 161.286 73.8859 162.539 73.3139C163.792 72.742 165.146 72.423 166.522 72.375C166.765 72.3665 167.008 72.3665 167.252 72.375L219.77 72.375Z" fill="#F2F2F2"/>
<path d="M221.06 93.2113C221.06 93.4254 220.975 93.6308 220.824 93.7822C220.673 93.9337 220.468 94.0188 220.254 94.0189H166.316C163.388 94.0168 160.58 92.8502 158.511 90.7755C156.441 88.7008 155.278 85.8877 155.278 82.9546C155.278 80.0216 156.441 77.2085 158.511 75.1338C160.58 73.059 163.388 71.8925 166.316 71.8904H220.254C220.36 71.8901 220.465 71.9108 220.563 71.9513C220.662 71.9918 220.751 72.0512 220.826 72.1262C220.901 72.2012 220.96 72.2904 221.001 72.3885C221.042 72.4866 221.063 72.5918 221.063 72.698C221.063 72.8042 221.042 72.9094 221.001 73.0076C220.96 73.1057 220.901 73.1948 220.826 73.2698C220.751 73.3449 220.662 73.4043 220.563 73.4448C220.465 73.4852 220.36 73.5059 220.254 73.5056H166.316C163.817 73.5094 161.421 74.5066 159.655 76.2782C157.889 78.0498 156.897 80.4511 156.897 82.9546C156.897 85.4582 157.889 87.8594 159.655 89.631C161.421 91.4027 163.817 92.3999 166.316 92.4036H220.254C220.468 92.4037 220.673 92.4888 220.824 92.6403C220.975 92.7917 221.06 92.9971 221.06 93.2113Z" fill="#F1E6EA"/>
<path d="M219.77 77.2206H163.333C163.29 77.2209 163.249 77.2042 163.219 77.1742C163.189 77.1442 163.171 77.1033 163.171 77.0606C163.17 77.0179 163.187 76.9767 163.217 76.9462C163.247 76.9156 163.287 76.8982 163.33 76.8976H219.77C219.813 76.898 219.854 76.9152 219.883 76.9455C219.913 76.9757 219.93 77.0166 219.93 77.0591C219.93 77.1017 219.913 77.1425 219.883 77.1728C219.854 77.203 219.813 77.2202 219.77 77.2206Z" fill="#CCCCCC"/>
<path d="M219.77 81.0972H163.333C163.29 81.0974 163.249 81.0807 163.219 81.0507C163.189 81.0207 163.171 80.9799 163.171 80.9371C163.17 80.8944 163.187 80.8533 163.217 80.8227C163.247 80.7922 163.287 80.7747 163.33 80.7741H219.77C219.813 80.7746 219.854 80.7918 219.883 80.822C219.913 80.8523 219.93 80.8931 219.93 80.9357C219.93 80.9782 219.913 81.0191 219.883 81.0493C219.854 81.0795 219.813 81.0967 219.77 81.0972Z" fill="#CCCCCC"/>
<path d="M219.77 84.9737H163.333C163.29 84.9739 163.249 84.9572 163.219 84.9272C163.189 84.8972 163.171 84.8564 163.171 84.8137C163.17 84.7709 163.187 84.7298 163.217 84.6992C163.247 84.6687 163.287 84.6512 163.33 84.6506H219.77C219.813 84.6511 219.854 84.6683 219.883 84.6985C219.913 84.7288 219.93 84.7696 219.93 84.8122C219.93 84.8547 219.913 84.8956 219.883 84.9258C219.854 84.9561 219.813 84.9733 219.77 84.9737Z" fill="#CCCCCC"/>
<path d="M219.77 88.8502H163.333C163.29 88.8504 163.249 88.8337 163.219 88.8037C163.189 88.7737 163.171 88.7329 163.171 88.6901C163.17 88.6474 163.187 88.6062 163.217 88.5757C163.247 88.5451 163.287 88.5277 163.33 88.5271H219.77C219.813 88.5275 219.854 88.5447 219.883 88.575C219.913 88.6052 219.93 88.6461 219.93 88.6886C219.93 88.7312 219.913 88.772 219.883 88.8023C219.854 88.8325 219.813 88.8497 219.77 88.8502Z" fill="#CCCCCC"/>
<path d="M209.87 50.2526V71.2504H157.351C154.571 71.3472 151.867 70.334 149.833 68.4336C147.799 66.5332 146.602 63.9012 146.505 61.1167C146.409 58.3322 147.42 55.6233 149.317 53.5859C151.215 51.5485 153.842 50.3494 156.622 50.2526C156.865 50.2441 157.108 50.2441 157.351 50.2526H209.87Z" fill="#F2F2F2"/>
<path d="M211.16 71.0888C211.16 71.303 211.075 71.5084 210.924 71.6598C210.773 71.8112 210.568 71.8963 210.354 71.8964H156.416C153.486 71.8964 150.677 70.7308 148.605 68.6558C146.534 66.5809 145.37 63.7666 145.37 60.8322C145.37 57.8978 146.534 55.0836 148.605 53.0086C150.677 50.9337 153.486 49.768 156.416 49.768H210.354C210.46 49.768 210.565 49.7889 210.663 49.8295C210.76 49.8701 210.849 49.9295 210.924 50.0045C210.999 50.0795 211.058 50.1686 211.099 50.2666C211.139 50.3645 211.16 50.4696 211.16 50.5756C211.16 50.6817 211.139 50.7867 211.099 50.8847C211.058 50.9826 210.999 51.0717 210.924 51.1467C210.849 51.2217 210.76 51.2811 210.663 51.3217C210.565 51.3623 210.46 51.3832 210.354 51.3832H156.416C153.914 51.3832 151.515 52.3787 149.746 54.1508C147.977 55.9228 146.983 58.3262 146.983 60.8322C146.983 63.3383 147.977 65.7417 149.746 67.5137C151.515 69.2857 153.914 70.2812 156.416 70.2812H210.354C210.568 70.2813 210.773 70.3664 210.924 70.5179C211.075 70.6693 211.16 70.8747 211.16 71.0888Z" fill="#3F3D56"/>
<path d="M209.87 55.0982H153.433C153.39 55.0984 153.349 55.0817 153.319 55.0517C153.288 55.0217 153.271 54.9809 153.271 54.9382C153.27 54.8954 153.287 54.8543 153.317 54.8237C153.346 54.7932 153.387 54.7757 153.43 54.7752H209.87C209.913 54.7756 209.953 54.7928 209.983 54.823C210.013 54.8533 210.03 54.8941 210.03 54.9367C210.03 54.9792 210.013 55.0201 209.983 55.0503C209.953 55.0806 209.913 55.0978 209.87 55.0982Z" fill="#CCCCCC"/>
<path d="M209.87 58.9747H153.433C153.39 58.975 153.349 58.9582 153.319 58.9283C153.288 58.8983 153.271 58.8574 153.271 58.8147C153.27 58.772 153.287 58.7308 153.317 58.7003C153.346 58.6697 153.387 58.6522 153.43 58.6517H209.87C209.913 58.6521 209.953 58.6693 209.983 58.6996C210.013 58.7298 210.03 58.7706 210.03 58.8132C210.03 58.8558 210.013 58.8966 209.983 58.9269C209.953 58.9571 209.913 58.9743 209.87 58.9747Z" fill="#CCCCCC"/>
<path d="M209.87 62.8512H153.433C153.39 62.8515 153.349 62.8348 153.319 62.8048C153.288 62.7748 153.271 62.7339 153.271 62.6912C153.27 62.6485 153.287 62.6073 153.317 62.5768C153.346 62.5462 153.387 62.5288 153.43 62.5282H209.87C209.913 62.5286 209.953 62.5458 209.983 62.5761C210.013 62.6063 210.03 62.6472 210.03 62.6897C210.03 62.7323 210.013 62.7731 209.983 62.8034C209.953 62.8336 209.913 62.8508 209.87 62.8512Z" fill="#CCCCCC"/>
<path d="M209.87 66.7277H153.433C153.39 66.7279 153.349 66.7112 153.319 66.6812C153.288 66.6512 153.271 66.6104 153.271 66.5677C153.27 66.525 153.287 66.4838 153.317 66.4533C153.346 66.4227 153.387 66.4053 153.43 66.4047H209.87C209.913 66.4051 209.953 66.4223 209.983 66.4526C210.013 66.4828 210.03 66.5237 210.03 66.5662C210.03 66.6088 210.013 66.6496 209.983 66.6798C209.953 66.7101 209.913 66.7273 209.87 66.7277Z" fill="#CCCCCC"/>
<path d="M270.966 168.771V150.463C270.966 149.654 270.645 148.878 270.073 148.306C269.502 147.733 268.727 147.412 267.919 147.412H198.617C197.81 147.412 197.035 147.733 196.463 148.306C195.892 148.878 195.571 149.654 195.571 150.463V168.771H270.966Z" fill="#CCCCCC"/>
<path d="M270.966 175.637H195.571V199.285H270.966V175.637Z" fill="#CCCCCC"/>
<path d="M195.571 206.151V224.459C195.571 225.268 195.892 226.044 196.463 226.617C197.035 227.189 197.81 227.51 198.617 227.51H267.919C268.727 227.51 269.502 227.189 270.073 226.617C270.645 226.044 270.966 225.268 270.966 224.459V206.151H195.571Z" fill="#CCCCCC"/>
<path d="M232.888 161.143C234.149 161.143 235.172 160.118 235.172 158.855C235.172 157.591 234.149 156.566 232.888 156.566C231.626 156.566 230.603 157.591 230.603 158.855C230.603 160.118 231.626 161.143 232.888 161.143Z" fill="white"/>
<path d="M232.888 191.657C234.149 191.657 235.172 190.632 235.172 189.368C235.172 188.104 234.149 187.08 232.888 187.08C231.626 187.08 230.603 188.104 230.603 189.368C230.603 190.632 231.626 191.657 232.888 191.657Z" fill="white"/>
<path d="M233.01 221.524C234.272 221.524 235.295 220.5 235.295 219.236C235.295 217.972 234.272 216.947 233.01 216.947C231.748 216.947 230.725 217.972 230.725 219.236C230.725 220.5 231.748 221.524 233.01 221.524Z" fill="white"/>
<path d="M262.418 126.537V147.535H209.899C207.12 147.63 204.418 146.615 202.385 144.715C200.353 142.815 199.157 140.184 199.06 137.401C198.963 134.618 199.974 131.91 201.869 129.873C203.765 127.836 206.391 126.636 209.169 126.537C209.412 126.528 209.656 126.528 209.899 126.537H262.418Z" fill="#F2F2F2"/>
<path d="M263.708 147.373C263.708 147.587 263.623 147.793 263.472 147.944C263.32 148.096 263.115 148.181 262.902 148.181H208.964C206.035 148.181 203.226 147.017 201.154 144.943C199.082 142.87 197.917 140.057 197.915 137.123C197.913 134.189 199.075 131.375 201.144 129.299C203.214 127.223 206.021 126.055 208.95 126.052H262.902C263.008 126.052 263.113 126.073 263.211 126.113C263.309 126.154 263.398 126.213 263.473 126.288C263.548 126.363 263.608 126.452 263.648 126.55C263.689 126.648 263.71 126.754 263.71 126.86C263.71 126.966 263.689 127.071 263.648 127.169C263.608 127.268 263.548 127.357 263.473 127.432C263.398 127.507 263.309 127.566 263.211 127.607C263.113 127.647 263.008 127.668 262.902 127.667H208.964C206.464 127.671 204.068 128.668 202.301 130.439C200.535 132.211 199.543 134.613 199.543 137.116C199.543 139.62 200.535 142.022 202.301 143.794C204.068 145.565 206.464 146.562 208.964 146.565H262.902C263.115 146.566 263.32 146.651 263.472 146.802C263.623 146.954 263.708 147.159 263.708 147.373Z" fill="#3F3D56"/>
<path d="M262.418 131.382H205.98C205.938 131.383 205.897 131.366 205.866 131.336C205.836 131.306 205.819 131.265 205.818 131.222C205.818 131.18 205.834 131.139 205.864 131.108C205.894 131.077 205.935 131.06 205.977 131.059H262.418C262.46 131.06 262.501 131.077 262.531 131.107C262.561 131.138 262.578 131.178 262.578 131.221C262.578 131.263 262.561 131.304 262.531 131.335C262.501 131.365 262.46 131.382 262.418 131.382H262.418Z" fill="#CCCCCC"/>
<path d="M262.418 135.259H205.98C205.938 135.259 205.897 135.243 205.866 135.213C205.836 135.183 205.819 135.142 205.818 135.099C205.818 135.056 205.834 135.015 205.864 134.985C205.894 134.954 205.935 134.937 205.977 134.936H262.418C262.46 134.936 262.501 134.954 262.531 134.984C262.561 135.014 262.578 135.055 262.578 135.098C262.578 135.14 262.561 135.181 262.531 135.211C262.501 135.241 262.46 135.259 262.418 135.259H262.418Z" fill="#CCCCCC"/>
<path d="M262.418 139.136H205.98C205.938 139.136 205.897 139.119 205.866 139.089C205.836 139.059 205.819 139.018 205.818 138.976C205.818 138.933 205.834 138.892 205.864 138.861C205.894 138.831 205.935 138.813 205.977 138.812H262.418C262.46 138.813 262.501 138.83 262.531 138.86C262.561 138.891 262.578 138.931 262.578 138.974C262.578 139.017 262.561 139.057 262.531 139.088C262.501 139.118 262.46 139.135 262.418 139.136H262.418Z" fill="#CCCCCC"/>
<path d="M262.418 143.012H205.98C205.938 143.012 205.897 142.996 205.866 142.966C205.836 142.936 205.819 142.895 205.818 142.852C205.818 142.809 205.834 142.768 205.864 142.738C205.894 142.707 205.935 142.69 205.977 142.689H262.418C262.46 142.689 262.501 142.707 262.531 142.737C262.561 142.767 262.578 142.808 262.578 142.85C262.578 142.893 262.561 142.934 262.531 142.964C262.501 142.994 262.46 143.012 262.418 143.012H262.418Z" fill="#CCCCCC"/>
<path d="M200.737 43.2478H176.809C176.582 43.2476 176.358 43.2998 176.154 43.4003L170.115 46.4288C169.916 46.5134 169.747 46.6547 169.627 46.8351C169.508 47.0155 169.445 47.2271 169.445 47.4434C169.445 47.6597 169.508 47.8712 169.627 48.0516C169.747 48.232 169.916 48.3733 170.115 48.4579L176.154 51.4864C176.358 51.587 176.582 51.6392 176.809 51.639H200.737C201.067 51.6581 201.391 51.5463 201.639 51.3279C201.887 51.1094 202.039 50.8018 202.062 50.4718V44.4149C202.039 44.0849 201.887 43.7773 201.639 43.5589C201.391 43.3404 201.067 43.2286 200.737 43.2478Z" fill="#3F3D56"/>
<path d="M202.062 44.4149V50.4718C202.039 50.8019 201.887 51.1094 201.639 51.3279C201.391 51.5464 201.067 51.6581 200.737 51.639H195.97V43.2478H200.737C201.067 43.2286 201.391 43.3404 201.639 43.5589C201.887 43.7773 202.039 44.0849 202.062 44.4149Z" fill="#F1E6EA"/>
<path d="M336.132 93.9926L333.606 92.927L331.873 80.2406H308.793L306.915 92.8752L304.654 94.0072C304.546 94.0614 304.459 94.1505 304.408 94.2602C304.357 94.3699 304.344 94.4937 304.372 94.6116C304.4 94.7295 304.466 94.8345 304.561 94.9097C304.656 94.9848 304.773 95.0257 304.894 95.0257H335.924C336.048 95.0257 336.168 94.9828 336.264 94.9042C336.36 94.8256 336.426 94.7162 336.45 94.5945C336.475 94.4728 336.457 94.3464 336.399 94.2367C336.341 94.127 336.247 94.0407 336.132 93.9926Z" fill="#E6E6E6"/>
<path d="M377.146 81.9285H263.773C263.178 81.9272 262.608 81.6896 262.188 81.2678C261.768 80.846 261.532 80.2745 261.532 79.6786V63.6645H379.388V79.6786C379.388 80.2745 379.152 80.846 378.731 81.2678C378.311 81.6896 377.741 81.9272 377.146 81.9285Z" fill="#CCCCCC"/>
<path d="M379.506 71.2331H261.428V2.71223C261.429 1.99314 261.715 1.30374 262.222 0.795279C262.73 0.286816 263.418 0.000804614 264.136 0H376.798C377.516 0.0008046 378.204 0.286816 378.712 0.795279C379.22 1.30374 379.505 1.99314 379.506 2.71223L379.506 71.2331Z" fill="#3F3D56"/>
<path d="M372.454 66.2599H268.481C267.927 66.2593 267.396 66.0388 267.005 65.6468C266.614 65.2548 266.394 64.7233 266.393 64.169V7.0642C266.394 6.50982 266.614 5.97831 267.005 5.58629C267.396 5.19428 267.927 4.97377 268.481 4.97313H372.454C373.007 4.97377 373.538 5.19428 373.929 5.58629C374.32 5.97831 374.541 6.50982 374.541 7.0642V64.169C374.541 64.7233 374.32 65.2548 373.929 65.6468C373.538 66.0388 373.007 66.2593 372.454 66.2599Z" fill="white"/>
<path d="M345.069 86.4093C345.74 85.7882 346.539 85.3221 347.41 85.0438C348.28 84.7655 349.201 84.6818 350.108 84.7986C351.014 84.9154 351.884 85.2298 352.656 85.7197C353.427 86.2097 354.083 86.8631 354.575 87.6342L368.639 85.1296L372.243 93.3192L352.333 96.5767C350.985 97.3196 349.411 97.5415 347.911 97.2002C346.411 96.8588 345.088 95.9781 344.192 94.7248C343.297 93.4716 342.892 91.9328 343.053 90.4002C343.215 88.8676 343.932 87.4476 345.069 86.4093Z" fill="#FFB6B6"/>
<path d="M358.09 96.8662L372.751 96.6831L374.607 96.6579L404.437 96.2814C404.437 96.2814 412.537 88.5405 419.591 80.5706L418.602 73.4078C417.638 66.3782 414.156 59.9389 408.806 55.2885C398.704 62.0501 392.845 75.4341 392.845 75.4341L374.35 79.8653L372.5 80.3085L361.007 83.0593L358.09 96.8662Z" fill="#F1E6EA"/>
<path d="M433.144 140.892H405.776C405.776 142.066 375.86 143.02 375.86 143.02C375.2 143.518 374.598 144.089 374.067 144.722C372.47 146.63 371.597 149.042 371.602 151.532V153.234C371.603 156.055 372.723 158.761 374.714 160.756C376.706 162.751 379.407 163.873 382.224 163.874H433.144C435.96 163.871 438.661 162.749 440.652 160.755C442.643 158.76 443.763 156.055 443.766 153.234V151.532C443.762 148.711 442.642 146.007 440.65 144.012C438.659 142.018 435.96 140.896 433.144 140.892Z" fill="#E4E4E4"/>
<path d="M413.242 163.451H402.195V227.32H413.242V163.451Z" fill="#E4E4E4"/>
<path d="M370.755 226.932C370.755 228.127 387.494 227.394 408.144 227.394C428.793 227.394 445.533 228.127 445.533 226.932C445.533 225.736 428.793 216.255 408.144 216.255C387.494 216.255 370.755 225.736 370.755 226.932Z" fill="#E4E4E4"/>
<path d="M363.334 219.634L355.113 219.633L351.202 187.869L363.335 187.869L363.334 219.634Z" fill="#FFB6B6"/>
<path d="M365.431 227.617L338.922 227.616V227.28C338.922 224.539 340.009 221.91 341.944 219.972C343.879 218.034 346.503 216.945 349.24 216.944H349.24L365.431 216.945L365.431 227.617Z" fill="#2F2E41"/>
<path d="M339.035 219.634L330.814 219.633L326.903 187.869L339.036 187.869L339.035 219.634Z" fill="#FFB6B6"/>
<path d="M341.132 227.617L314.623 227.616V227.28C314.623 224.539 315.71 221.91 317.645 219.972C319.58 218.034 322.204 216.945 324.941 216.944H324.941L341.132 216.945L341.132 227.617Z" fill="#2F2E41"/>
<path d="M412.681 36.762C420.575 36.762 426.975 30.3512 426.975 22.4432C426.975 14.5351 420.575 8.12434 412.681 8.12434C404.786 8.12434 398.386 14.5351 398.386 22.4432C398.386 30.3512 404.786 36.762 412.681 36.762Z" fill="#FFB6B6"/>
<path d="M435.816 120.55C435.816 120.55 440.613 145.955 422.364 149.19C404.114 152.425 377.771 154.699 377.771 154.699L365.941 209.986L350.048 208.564C350.048 208.564 352.162 142.012 357.36 136.805C362.558 131.598 395.412 116.007 395.412 116.007L435.816 120.55Z" fill="#2F2E41"/>
<path d="M400.174 109.903L392.193 117.923C392.193 117.923 334.563 127.221 332.34 140.554C328.983 160.684 325.019 204.458 325.019 204.458L342.346 203.156L349.14 153.397L376.864 147.081L408.405 129.862L400.174 109.903Z" fill="#2F2E41"/>
<path d="M426.436 13.8959C425.025 11.2291 423.232 5.91403 420.384 4.9283C418.802 4.40296 417.168 4.05412 415.51 3.88812L410.668 5.75321L413.303 3.70058C412.79 3.66997 412.278 3.64494 411.765 3.6255L408.499 4.88389L410.17 3.58196C407.125 3.55065 403.981 3.86782 401.622 5.72472C399.61 7.30773 397.617 13.3045 397.295 15.8464C396.951 18.2781 397.071 20.7532 397.65 23.1398L398.478 23.9277C398.767 23.2631 398.985 22.5694 399.127 21.8584C399.423 20.53 399.993 19.278 400.799 18.1823C401.605 17.0866 402.631 16.1712 403.81 15.4944L403.855 15.4689C405.242 14.6868 406.926 14.7229 408.517 14.7802L416.073 15.0526C417.891 15.1181 419.848 15.2333 421.265 16.3756C422.166 17.2182 422.875 18.246 423.342 19.3884C424.046 20.8122 425.422 26.1824 425.422 26.1824C425.422 26.1824 426.201 25.1687 426.574 25.9232C427.172 23.9547 427.536 21.9222 427.658 19.868C427.777 17.8047 427.356 15.746 426.436 13.8959Z" fill="#2F2E41"/>
<path d="M476.433 28.7313C475.521 28.7915 474.633 29.0511 473.833 29.4921C473.032 29.933 472.337 30.5445 471.798 31.2834C471.258 32.0223 470.887 32.8706 470.711 33.7687C470.534 34.6668 470.556 35.5928 470.775 36.4814L459.28 44.9751L462.729 53.2313L478.795 41.0082C480.26 40.5403 481.504 39.55 482.29 38.225C483.076 36.9 483.349 35.3323 483.058 33.819C482.766 32.3057 481.931 30.952 480.71 30.0143C479.489 29.0766 477.967 28.6201 476.433 28.7313Z" fill="#FFB6B6"/>
<path d="M474.583 46.0711L445.766 78.1297C445.766 78.1297 431.985 73.7106 421.327 68.9196L416.539 54.1891C415.427 50.7718 414.953 47.1787 415.139 43.5894C429.914 39.6512 447.099 54.3046 447.099 54.3046L468.67 37.3796L474.583 46.0711Z" fill="#F1E6EA"/>
<path d="M407.341 122.918C402.2 121.139 396.884 119.3 391.15 118.609L390.903 118.579L390.971 118.34C396.907 97.4634 395.426 84.1085 392.517 64.0476C391.898 59.7205 392.693 55.309 394.783 51.4716C396.873 47.6342 400.145 44.5766 404.112 42.7552L404.148 42.7393L420.525 41.6969L420.562 41.6946L432.473 45.2036C434.187 45.7122 435.687 46.7694 436.743 48.2133C437.799 49.6573 438.354 51.4083 438.321 53.198C438.192 59.7954 438.466 67.1613 438.756 74.9593C439.406 92.4539 440.078 110.544 436.264 122.282L436.244 122.343L436.193 122.383C432.687 125.244 428.294 126.789 423.773 126.753C418.426 126.753 412.971 124.866 407.341 122.918Z" fill="#F1E6EA"/>
<path d="M526.436 229H137.564C137.414 229 137.271 228.895 137.165 228.707C137.059 228.52 137 228.265 137 228C137 227.735 137.059 227.48 137.165 227.293C137.271 227.105 137.414 227 137.564 227H526.436C526.586 227 526.729 227.105 526.835 227.293C526.941 227.48 527 227.735 527 228C527 228.265 526.941 228.52 526.835 228.707C526.729 228.895 526.586 229 526.436 229Z" fill="#CCCCCC"/>
</g>
<defs>
<clipPath id="clip0_3:35">
<rect width="527" height="229" fill="white"/>
</clipPath>
</defs>
</svg>
